<svg width="196" height="154" viewBox="0 0 196 154" fill="none" xmlns="http://www.w3.org/2000/svg">
<rect width="196" height="154" fill="#1D1D1D"/>
<g id="NFT Market Place" clip-path="url(#clip0_0_1)">
<rect width="1440" height="5728" transform="translate(-68 -436)" fill="white"/>
<g id="Hero">
<g id="Dot">
<circle id="Ellipse 5" cx="3.5" cy="3.5" r="3.5" fill="#F4F4F4"/>
<circle id="Ellipse 15" cx="3.5" cy="24.5" r="3.5" fill="#F4F4F4"/>
<circle id="Ellipse 25" cx="3.5" cy="45.5" r="3.5" fill="#F4F4F4"/>
<circle id="Ellipse 35" cx="3.5" cy="66.5" r="3.5" fill="#F4F4F4"/>
<circle id="Ellipse 45" cx="3.5" cy="87.5" r="3.5" fill="#F4F4F4"/>
<circle id="Ellipse 55" cx="3.5" cy="108.5" r="3.5" fill="#F4F4F4"/>
<circle id="Ellipse 65" cx="3.5" cy="129.5" r="3.5" fill="#F4F4F4"/>
<circle id="Ellipse 75" cx="3.5" cy="150.5" r="3.5" fill="#F4F4F4"/>
<circle id="Ellipse 6" cx="24.5" cy="3.5" r="3.5" fill="#F4F4F4"/>
<circle id="Ellipse 16" cx="24.5" cy="24.5" r="3.5" fill="#F4F4F4"/>
<circle id="Ellipse 26" cx="24.5" cy="45.5" r="3.5" fill="#F4F4F4"/>
<circle id="Ellipse 36" cx="24.5" cy="66.5" r="3.5" fill="#F4F4F4"/>
<circle id="Ellipse 46" cx="24.5" cy="87.5" r="3.5" fill="#F4F4F4"/>
<circle id="Ellipse 56" cx="24.5" cy="108.5" r="3.5" fill="#F4F4F4"/>
<circle id="Ellipse 66" cx="24.5" cy="129.5" r="3.5" fill="#F4F4F4"/>
<circle id="Ellipse 76" cx="24.5" cy="150.5" r="3.5" fill="#F4F4F4"/>
<circle id="Ellipse 7" cx="45.5" cy="3.5" r="3.5" fill="#F4F4F4"/>
<circle id="Ellipse 17" cx="45.5" cy="24.5" r="3.5" fill="#F4F4F4"/>
<circle id="Ellipse 27" cx="45.5" cy="45.5" r="3.5" fill="#F4F4F4"/>
<circle id="Ellipse 37" cx="45.5" cy="66.5" r="3.5" fill="#F4F4F4"/>
<circle id="Ellipse 47" cx="45.5" cy="87.5" r="3.5" fill="#F4F4F4"/>
<circle id="Ellipse 57" cx="45.5" cy="108.5" r="3.5" fill="#F4F4F4"/>
<circle id="Ellipse 67" cx="45.5" cy="129.5" r="3.5" fill="#F4F4F4"/>
<circle id="Ellipse 77" cx="45.5" cy="150.5" r="3.5" fill="#F4F4F4"/>
<circle id="Ellipse 8" cx="66.5" cy="3.5" r="3.5" fill="#F4F4F4"/>
<circle id="Ellipse 18" cx="66.5" cy="24.5" r="3.5" fill="#F4F4F4"/>
<circle id="Ellipse 28" cx="66.5" cy="45.5" r="3.5" fill="#F4F4F4"/>
<circle id="Ellipse 38" cx="66.5" cy="66.5" r="3.5" fill="#F4F4F4"/>
<circle id="Ellipse 48" cx="66.5" cy="87.5" r="3.5" fill="#F4F4F4"/>
<circle id="Ellipse 58" cx="66.5" cy="108.5" r="3.5" fill="#F4F4F4"/>
<circle id="Ellipse 68" cx="66.5" cy="129.5" r="3.5" fill="#F4F4F4"/>
<circle id="Ellipse 78" cx="66.5" cy="150.5" r="3.5" fill="#F4F4F4"/>
<circle id="Ellipse 9" cx="87.5" cy="3.5" r="3.5" fill="#F4F4F4"/>
<circle id="Ellipse 19" cx="87.5" cy="24.5" r="3.5" fill="#F4F4F4"/>
<circle id="Ellipse 29" cx="87.5" cy="45.5" r="3.5" fill="#F4F4F4"/>
<circle id="Ellipse 39" cx="87.5" cy="66.5" r="3.5" fill="#F4F4F4"/>
<circle id="Ellipse 49" cx="87.5" cy="87.5" r="3.5" fill="#F4F4F4"/>
<circle id="Ellipse 59" cx="87.5" cy="108.5" r="3.5" fill="#F4F4F4"/>
<circle id="Ellipse 69" cx="87.5" cy="129.5" r="3.5" fill="#F4F4F4"/>
<circle id="Ellipse 79" cx="87.5" cy="150.5" r="3.5" fill="#F4F4F4"/>
<circle id="Ellipse 10" cx="108.5" cy="3.5" r="3.5" fill="#F4F4F4"/>
<circle id="Ellipse 20" cx="108.5" cy="24.5" r="3.5" fill="#F4F4F4"/>
<circle id="Ellipse 30" cx="108.5" cy="45.5" r="3.5" fill="#F4F4F4"/>
<circle id="Ellipse 40" cx="108.5" cy="66.5" r="3.5" fill="#F4F4F4"/>
<circle id="Ellipse 50" cx="108.5" cy="87.5" r="3.5" fill="#F4F4F4"/>
<circle id="Ellipse 60" cx="108.5" cy="108.5" r="3.5" fill="#F4F4F4"/>
<circle id="Ellipse 70" cx="108.5" cy="129.5" r="3.5" fill="#F4F4F4"/>
<circle id="Ellipse 80" cx="108.5" cy="150.5" r="3.5" fill="#F4F4F4"/>
<circle id="Ellipse 11" cx="129.5" cy="3.5" r="3.5" fill="#F4F4F4"/>
<circle id="Ellipse 21" cx="129.5" cy="24.5" r="3.5" fill="#F4F4F4"/>
<circle id="Ellipse 31" cx="129.5" cy="45.5" r="3.5" fill="#F4F4F4"/>
<circle id="Ellipse 41" cx="129.5" cy="66.5" r="3.5" fill="#F4F4F4"/>
<circle id="Ellipse 51" cx="129.5" cy="87.5" r="3.5" fill="#F4F4F4"/>
<circle id="Ellipse 61" cx="129.5" cy="108.5" r="3.5" fill="#F4F4F4"/>
<circle id="Ellipse 71" cx="129.5" cy="129.5" r="3.5" fill="#F4F4F4"/>
<circle id="Ellipse 81" cx="129.5" cy="150.5" r="3.5" fill="#F4F4F4"/>
<circle id="Ellipse 12" cx="150.5" cy="3.5" r="3.5" fill="#F4F4F4"/>
<circle id="Ellipse 22" cx="150.5" cy="24.5" r="3.5" fill="#F4F4F4"/>
<circle id="Ellipse 32" cx="150.5" cy="45.5" r="3.5" fill="#F4F4F4"/>
<circle id="Ellipse 42" cx="150.5" cy="66.5" r="3.5" fill="#F4F4F4"/>
<circle id="Ellipse 52" cx="150.5" cy="87.5" r="3.5" fill="#F4F4F4"/>
<circle id="Ellipse 62" cx="150.5" cy="108.5" r="3.5" fill="#F4F4F4"/>
<circle id="Ellipse 72" cx="150.5" cy="129.5" r="3.5" fill="#F4F4F4"/>
<circle id="Ellipse 82" cx="150.5" cy="150.5" r="3.5" fill="#F4F4F4"/>
<circle id="Ellipse 13" cx="171.5" cy="3.5" r="3.5" fill="#F4F4F4"/>
<circle id="Ellipse 23" cx="171.5" cy="24.5" r="3.5" fill="#F4F4F4"/>
<circle id="Ellipse 33" cx="171.5" cy="45.5" r="3.5" fill="#F4F4F4"/>
<circle id="Ellipse 43" cx="171.5" cy="66.5" r="3.5" fill="#F4F4F4"/>
<circle id="Ellipse 53" cx="171.5" cy="87.5" r="3.5" fill="#F4F4F4"/>
<circle id="Ellipse 63" cx="171.5" cy="108.5" r="3.5" fill="#F4F4F4"/>
<circle id="Ellipse 73" cx="171.5" cy="129.5" r="3.5" fill="#F4F4F4"/>
<circle id="Ellipse 83" cx="171.5" cy="150.5" r="3.5" fill="#F4F4F4"/>
<circle id="Ellipse 14" cx="192.5" cy="3.5" r="3.5" fill="#F4F4F4"/>
<circle id="Ellipse 24" cx="192.5" cy="24.5" r="3.5" fill="#F4F4F4"/>
<circle id="Ellipse 34" cx="192.5" cy="45.5" r="3.5" fill="#F4F4F4"/>
<circle id="Ellipse 44" cx="192.5" cy="66.5" r="3.5" fill="#F4F4F4"/>
<circle id="Ellipse 54" cx="192.5" cy="87.5" r="3.5" fill="#F4F4F4"/>
<circle id="Ellipse 64" cx="192.5" cy="108.5" r="3.5" fill="#F4F4F4"/>
<circle id="Ellipse 74" cx="192.5" cy="129.5" r="3.5" fill="#F4F4F4"/>
<circle id="Ellipse 84" cx="192.5" cy="150.5" r="3.5" fill="#F4F4F4"/>
</g>
<g id="Frame 2">
<rect x="53" width="209" height="65" rx="32.5" fill="#3D00B7"/>
<g id="Explore Now">
<mask id="path-82-outside-1_0_1" maskUnits="userSpaceOnUse" x="94" y="24" width="129" height="21" fill="black">
<rect fill="white" x="94" y="24" width="129" height="21"/>
<path d="M94.76 25.8V40H103.88V38.42H96.5V33.72H102.2V32.14H96.5V27.38H103.46V25.8H94.76ZM110.275 35.06L106.735 40H108.555L111.215 36.46H111.235L113.875 40H115.715L112.155 35.08L115.675 30.26H113.775L111.215 33.82H111.175L108.655 30.26H106.735L110.275 35.06ZM119.093 30.26V43.96H120.713V38.32H120.733C121.453 39.44 122.653 40.12 124.193 40.12C126.873 40.12 128.933 38.16 128.933 35.2C128.933 32.32 126.953 30.14 124.193 30.14C122.713 30.14 121.473 30.82 120.733 31.98H120.713V30.26H119.093ZM123.973 38.64C122.113 38.64 120.633 37.26 120.633 35.2C120.633 33.2 121.973 31.62 123.953 31.62C125.793 31.62 127.293 33.04 127.293 35.2C127.293 37.16 125.933 38.64 123.973 38.64ZM132.798 25.28V40H134.418V25.28H132.798ZM143.3 40.12C146.18 40.12 148.32 38.1 148.32 35.14C148.32 32.18 146.18 30.14 143.3 30.14C140.28 30.14 138.26 32.34 138.26 35.14C138.26 37.94 140.28 40.12 143.3 40.12ZM143.3 38.64C141.28 38.64 139.92 37.08 139.92 35.14C139.92 33.2 141.26 31.62 143.3 31.62C145.18 31.62 146.66 33.06 146.66 35.14C146.66 37.22 145.16 38.64 143.3 38.64ZM152.036 30.26V40H153.656V35.3C153.656 33.34 154.756 31.92 156.616 31.92C156.776 31.92 157.016 31.94 157.256 31.96V30.16C157.116 30.14 156.996 30.14 156.856 30.14C155.516 30.14 154.396 30.86 153.696 32.04H153.656V30.26H152.036ZM168.734 34.96C168.734 32.18 166.914 30.14 164.254 30.14C161.474 30.14 159.454 32.2 159.454 35.14C159.454 38.12 161.494 40.12 164.374 40.12C166.334 40.12 167.554 39.38 168.394 38.3L167.254 37.34C166.654 38.08 165.734 38.64 164.434 38.64C162.594 38.64 161.314 37.44 161.094 35.62H168.694C168.694 35.5 168.734 35.22 168.734 34.96ZM164.234 31.62C165.834 31.62 166.874 32.7 167.114 34.3H161.134C161.434 32.64 162.674 31.62 164.234 31.62ZM179.398 25.8V40H181.138V28.82H181.178L189.118 40H190.898V25.8H189.158V37.1H189.138L181.118 25.8H179.398ZM199.898 40.12C202.778 40.12 204.918 38.1 204.918 35.14C204.918 32.18 202.778 30.14 199.898 30.14C196.878 30.14 194.858 32.34 194.858 35.14C194.858 37.94 196.878 40.12 199.898 40.12ZM199.898 38.64C197.878 38.64 196.518 37.08 196.518 35.14C196.518 33.2 197.858 31.62 199.898 31.62C201.778 31.62 203.258 33.06 203.258 35.14C203.258 37.22 201.758 38.64 199.898 38.64ZM207.126 30.26L210.486 40H211.966L214.206 32.86H214.226L216.466 40H217.986L221.346 30.26H219.686L217.246 37.58H217.206L214.926 30.26H213.526L211.286 37.58H211.246L208.786 30.26H207.126Z"/>
</mask>
<path d="M94.76 25.8V40H103.88V38.42H96.5V33.72H102.2V32.14H96.5V27.38H103.46V25.8H94.76ZM110.275 35.06L106.735 40H108.555L111.215 36.46H111.235L113.875 40H115.715L112.155 35.08L115.675 30.26H113.775L111.215 33.82H111.175L108.655 30.26H106.735L110.275 35.06ZM119.093 30.26V43.96H120.713V38.32H120.733C121.453 39.44 122.653 40.12 124.193 40.12C126.873 40.12 128.933 38.16 128.933 35.2C128.933 32.32 126.953 30.14 124.193 30.14C122.713 30.14 121.473 30.82 120.733 31.98H120.713V30.26H119.093ZM123.973 38.64C122.113 38.64 120.633 37.26 120.633 35.2C120.633 33.2 121.973 31.62 123.953 31.62C125.793 31.62 127.293 33.04 127.293 35.2C127.293 37.16 125.933 38.64 123.973 38.64ZM132.798 25.28V40H134.418V25.28H132.798ZM143.3 40.12C146.18 40.12 148.32 38.1 148.32 35.14C148.32 32.18 146.18 30.14 143.3 30.14C140.28 30.14 138.26 32.34 138.26 35.14C138.26 37.94 140.28 40.12 143.3 40.12ZM143.3 38.64C141.28 38.64 139.92 37.08 139.92 35.14C139.92 33.2 141.26 31.62 143.3 31.62C145.18 31.62 146.66 33.06 146.66 35.14C146.66 37.22 145.16 38.64 143.3 38.64ZM152.036 30.26V40H153.656V35.3C153.656 33.34 154.756 31.92 156.616 31.92C156.776 31.92 157.016 31.94 157.256 31.96V30.16C157.116 30.14 156.996 30.14 156.856 30.14C155.516 30.14 154.396 30.86 153.696 32.04H153.656V30.26H152.036ZM168.734 34.96C168.734 32.18 166.914 30.14 164.254 30.14C161.474 30.14 159.454 32.2 159.454 35.14C159.454 38.12 161.494 40.12 164.374 40.12C166.334 40.12 167.554 39.38 168.394 38.3L167.254 37.34C166.654 38.08 165.734 38.64 164.434 38.64C162.594 38.64 161.314 37.44 161.094 35.62H168.694C168.694 35.5 168.734 35.22 168.734 34.96ZM164.234 31.62C165.834 31.62 166.874 32.7 167.114 34.3H161.134C161.434 32.64 162.674 31.62 164.234 31.62ZM179.398 25.8V40H181.138V28.82H181.178L189.118 40H190.898V25.8H189.158V37.1H189.138L181.118 25.8H179.398ZM199.898 40.12C202.778 40.12 204.918 38.1 204.918 35.14C204.918 32.18 202.778 30.14 199.898 30.14C196.878 30.14 194.858 32.34 194.858 35.14C194.858 37.94 196.878 40.12 199.898 40.12ZM199.898 38.64C197.878 38.64 196.518 37.08 196.518 35.14C196.518 33.2 197.858 31.62 199.898 31.62C201.778 31.62 203.258 33.06 203.258 35.14C203.258 37.22 201.758 38.64 199.898 38.64ZM207.126 30.26L210.486 40H211.966L214.206 32.86H214.226L216.466 40H217.986L221.346 30.26H219.686L217.246 37.58H217.206L214.926 30.26H213.526L211.286 37.58H211.246L208.786 30.26H207.126Z" fill="white"/>
<path d="M94.76 25.8V25.3H94.26V25.8H94.76ZM94.76 40H94.26V40.5H94.76V40ZM103.88 40V40.5H104.38V40H103.88ZM103.88 38.42H104.38V37.92H103.88V38.42ZM96.5 38.42H96V38.92H96.5V38.42ZM96.5 33.72V33.22H96V33.72H96.5ZM102.2 33.72V34.22H102.7V33.72H102.2ZM102.2 32.14H102.7V31.64H102.2V32.14ZM96.5 32.14H96V32.64H96.5V32.14ZM96.5 27.38V26.88H96V27.38H96.5ZM103.46 27.38V27.88H103.96V27.38H103.46ZM103.46 25.8H103.96V25.3H103.46V25.8ZM94.26 25.8V40H95.26V25.8H94.26ZM94.76 40.5H103.88V39.5H94.76V40.5ZM104.38 40V38.42H103.38V40H104.38ZM103.88 37.92H96.5V38.92H103.88V37.92ZM97 38.42V33.72H96V38.42H97ZM96.5 34.22H102.2V33.22H96.5V34.22ZM102.7 33.72V32.14H101.7V33.72H102.7ZM102.2 31.64H96.5V32.64H102.2V31.64ZM97 32.14V27.38H96V32.14H97ZM96.5 27.88H103.46V26.88H96.5V27.88ZM103.96 27.38V25.8H102.96V27.38H103.96ZM103.46 25.3H94.76V26.3H103.46V25.3ZM110.275 35.06L110.682 35.3512L110.894 35.0558L110.678 34.7632L110.275 35.06ZM106.735 40L106.329 39.7088L105.762 40.5H106.735V40ZM108.555 40V40.5H108.805L108.955 40.3004L108.555 40ZM111.215 36.46V35.96H110.966L110.816 36.1596L111.215 36.46ZM111.235 36.46L111.636 36.1611L111.486 35.96H111.235V36.46ZM113.875 40L113.475 40.2989L113.625 40.5H113.875V40ZM115.715 40V40.5H116.694L116.121 39.7069L115.715 40ZM112.155 35.08L111.752 34.7851L111.537 35.0786L111.75 35.3731L112.155 35.08ZM115.675 30.26L116.079 30.5549L116.66 29.76H115.675V30.26ZM113.775 30.26V29.76H113.519L113.37 29.9681L113.775 30.26ZM111.215 33.82V34.32H111.472L111.621 34.1119L111.215 33.82ZM111.175 33.82L110.767 34.1089L110.917 34.32H111.175V33.82ZM108.655 30.26L109.064 29.9711L108.914 29.76H108.655V30.26ZM106.735 30.26V29.76H105.745L106.333 30.5568L106.735 30.26ZM109.869 34.7688L106.329 39.7088L107.142 40.2912L110.682 35.3512L109.869 34.7688ZM106.735 40.5H108.555V39.5H106.735V40.5ZM108.955 40.3004L111.615 36.7604L110.816 36.1596L108.156 39.6996L108.955 40.3004ZM111.215 36.96H111.235V35.96H111.215V36.96ZM110.835 36.7589L113.475 40.2989L114.276 39.7011L111.636 36.1611L110.835 36.7589ZM113.875 40.5H115.715V39.5H113.875V40.5ZM116.121 39.7069L112.561 34.7869L111.75 35.3731L115.31 40.2931L116.121 39.7069ZM112.559 35.3749L116.079 30.5549L115.272 29.9651L111.752 34.7851L112.559 35.3749ZM115.675 29.76H113.775V30.76H115.675V29.76ZM113.37 29.9681L110.81 33.5281L111.621 34.1119L114.181 30.5519L113.37 29.9681ZM111.215 33.32H111.175V34.32H111.215V33.32ZM111.584 33.5311L109.064 29.9711L108.247 30.5489L110.767 34.1089L111.584 33.5311ZM108.655 29.76H106.735V30.76H108.655V29.76ZM106.333 30.5568L109.873 35.3568L110.678 34.7632L107.138 29.9632L106.333 30.5568ZM119.093 30.26V29.76H118.593V30.26H119.093ZM119.093 43.96H118.593V44.46H119.093V43.96ZM120.713 43.96V44.46H121.213V43.96H120.713ZM120.713 38.32V37.82H120.213V38.32H120.713ZM120.733 38.32L121.153 38.0496L121.006 37.82H120.733V38.32ZM120.733 31.98V32.48H121.007L121.154 32.2489L120.733 31.98ZM120.713 31.98H120.213V32.48H120.713V31.98ZM120.713 30.26H121.213V29.76H120.713V30.26ZM118.593 30.26V43.96H119.593V30.26H118.593ZM119.093 44.46H120.713V43.46H119.093V44.46ZM121.213 43.96V38.32H120.213V43.96H121.213ZM120.713 38.82H120.733V37.82H120.713V38.82ZM120.312 38.5904C121.128 39.8602 122.491 40.62 124.193 40.62V39.62C122.815 39.62 121.777 39.0198 121.153 38.0496L120.312 38.5904ZM124.193 40.62C127.154 40.62 129.433 38.4306 129.433 35.2H128.433C128.433 37.8894 126.591 39.62 124.193 39.62V40.62ZM129.433 35.2C129.433 32.0796 127.263 29.64 124.193 29.64V30.64C126.642 30.64 128.433 32.5604 128.433 35.2H129.433ZM124.193 29.64C122.549 29.64 121.147 30.4012 120.311 31.7111L121.154 32.2489C121.799 31.2388 122.876 30.64 124.193 30.64V29.64ZM120.733 31.48H120.713V32.48H120.733V31.48ZM121.213 31.98V30.26H120.213V31.98H121.213ZM120.713 29.76H119.093V30.76H120.713V29.76ZM123.973 38.14C122.389 38.14 121.133 36.9839 121.133 35.2H120.133C120.133 37.5361 121.837 39.14 123.973 39.14V38.14ZM121.133 35.2C121.133 33.427 122.296 32.12 123.953 32.12V31.12C121.65 31.12 120.133 32.973 120.133 35.2H121.133ZM123.953 32.12C125.501 32.12 126.793 33.3007 126.793 35.2H127.793C127.793 32.7793 126.084 31.12 123.953 31.12V32.12ZM126.793 35.2C126.793 36.9077 125.633 38.14 123.973 38.14V39.14C126.232 39.14 127.793 37.4123 127.793 35.2H126.793ZM132.798 25.28V24.78H132.298V25.28H132.798ZM132.798 40H132.298V40.5H132.798V40ZM134.418 40V40.5H134.918V40H134.418ZM134.418 25.28H134.918V24.78H134.418V25.28ZM132.298 25.28V40H133.298V25.28H132.298ZM132.798 40.5H134.418V39.5H132.798V40.5ZM134.918 40V25.28H133.918V40H134.918ZM134.418 24.78H132.798V25.78H134.418V24.78ZM143.3 40.62C146.446 40.62 148.82 38.3867 148.82 35.14H147.82C147.82 37.8133 145.915 39.62 143.3 39.62V40.62ZM148.82 35.14C148.82 31.8959 146.448 29.64 143.3 29.64V30.64C145.912 30.64 147.82 32.4641 147.82 35.14H148.82ZM143.3 29.64C139.995 29.64 137.76 32.0732 137.76 35.14H138.76C138.76 32.6068 140.566 30.64 143.3 30.64V29.64ZM137.76 35.14C137.76 38.2095 139.997 40.62 143.3 40.62V39.62C140.563 39.62 138.76 37.6705 138.76 35.14H137.76ZM143.3 38.14C141.587 38.14 140.42 36.8351 140.42 35.14H139.42C139.42 37.3249 140.974 39.14 143.3 39.14V38.14ZM140.42 35.14C140.42 33.439 141.572 32.12 143.3 32.12V31.12C140.948 31.12 139.42 32.961 139.42 35.14H140.42ZM143.3 32.12C144.893 32.12 146.16 33.3245 146.16 35.14H147.16C147.16 32.7955 145.468 31.12 143.3 31.12V32.12ZM146.16 35.14C146.16 36.9497 144.878 38.14 143.3 38.14V39.14C145.442 39.14 147.16 37.4903 147.16 35.14H146.16ZM152.036 30.26V29.76H151.536V30.26H152.036ZM152.036 40H151.536V40.5H152.036V40ZM153.656 40V40.5H154.156V40H153.656ZM157.256 31.96L157.214 32.4583L157.756 32.5034V31.96H157.256ZM157.256 30.16H157.756V29.7264L157.326 29.665L157.256 30.16ZM153.696 32.04V32.54H153.98L154.126 32.2951L153.696 32.04ZM153.656 32.04H153.156V32.54H153.656V32.04ZM153.656 30.26H154.156V29.76H153.656V30.26ZM151.536 30.26V40H152.536V30.26H151.536ZM152.036 40.5H153.656V39.5H152.036V40.5ZM154.156 40V35.3H153.156V40H154.156ZM154.156 35.3C154.156 34.4097 154.405 33.688 154.82 33.1979C155.227 32.717 155.824 32.42 156.616 32.42V31.42C155.548 31.42 154.665 31.833 154.056 32.5521C153.456 33.262 153.156 34.2303 153.156 35.3H154.156ZM156.616 32.42C156.75 32.42 156.965 32.4375 157.214 32.4583L157.297 31.4617C157.067 31.4425 156.802 31.42 156.616 31.42V32.42ZM157.756 31.96V30.16H156.756V31.96H157.756ZM157.326 29.665C157.146 29.6393 156.993 29.64 156.856 29.64V30.64C156.999 30.64 157.085 30.6407 157.185 30.655L157.326 29.665ZM156.856 29.64C155.316 29.64 154.043 30.4745 153.266 31.7849L154.126 32.2951C154.748 31.2455 155.716 30.64 156.856 30.64V29.64ZM153.696 31.54H153.656V32.54H153.696V31.54ZM154.156 32.04V30.26H153.156V32.04H154.156ZM153.656 29.76H152.036V30.76H153.656V29.76ZM168.394 38.3L168.789 38.607L169.084 38.2273L168.716 37.9175L168.394 38.3ZM167.254 37.34L167.576 36.9575L167.186 36.6294L166.866 37.0251L167.254 37.34ZM161.094 35.62V35.12H160.53L160.598 35.68L161.094 35.62ZM168.694 35.62V36.12H169.194V35.62H168.694ZM167.114 34.3V34.8H167.695L167.608 34.2258L167.114 34.3ZM161.134 34.3L160.642 34.2111L160.535 34.8H161.134V34.3ZM169.234 34.96C169.234 33.4609 168.742 32.1303 167.86 31.1693C166.974 30.2049 165.719 29.64 164.254 29.64V30.64C165.449 30.64 166.434 31.0951 167.123 31.8457C167.816 32.5997 168.234 33.6791 168.234 34.96H169.234ZM164.254 29.64C161.182 29.64 158.954 31.9403 158.954 35.14H159.954C159.954 32.4597 161.766 30.64 164.254 30.64V29.64ZM158.954 35.14C158.954 36.7472 159.506 38.1241 160.48 39.1005C161.453 40.0768 162.815 40.62 164.374 40.62V39.62C163.052 39.62 161.955 39.1632 161.188 38.3945C160.422 37.6259 159.954 36.5128 159.954 35.14H158.954ZM164.374 40.62C166.488 40.62 167.854 39.809 168.789 38.607L167.999 37.993C167.254 38.951 166.18 39.62 164.374 39.62V40.62ZM168.716 37.9175L167.576 36.9575L166.932 37.7225L168.072 38.6825L168.716 37.9175ZM166.866 37.0251C166.353 37.6578 165.571 38.14 164.434 38.14V39.14C165.897 39.14 166.955 38.5022 167.642 37.6549L166.866 37.0251ZM164.434 38.14C163.626 38.14 162.97 37.8787 162.494 37.4433C162.016 37.0066 161.688 36.367 161.59 35.56L160.598 35.68C160.72 36.693 161.142 37.5634 161.819 38.1817C162.498 38.8013 163.401 39.14 164.434 39.14V38.14ZM161.094 36.12H168.694V35.12H161.094V36.12ZM169.194 35.62C169.194 35.5881 169.2 35.5234 169.212 35.3849C169.222 35.2654 169.234 35.1126 169.234 34.96H168.234C168.234 35.0674 168.226 35.1846 168.216 35.3001C168.207 35.3966 168.194 35.5319 168.194 35.62H169.194ZM164.234 32.12C164.914 32.12 165.448 32.3465 165.838 32.7208C166.233 33.0999 166.512 33.661 166.619 34.3742L167.608 34.2258C167.475 33.339 167.115 32.5601 166.53 31.9992C165.94 31.4335 165.153 31.12 164.234 31.12V32.12ZM167.114 33.8H161.134V34.8H167.114V33.8ZM161.626 34.3889C161.884 32.9583 162.924 32.12 164.234 32.12V31.12C162.423 31.12 160.983 32.3217 160.642 34.2111L161.626 34.3889ZM179.398 25.8V25.3H178.898V25.8H179.398ZM179.398 40H178.898V40.5H179.398V40ZM181.138 40V40.5H181.638V40H181.138ZM181.138 28.82V28.32H180.638V28.82H181.138ZM181.178 28.82L181.586 28.5305L181.436 28.32H181.178V28.82ZM189.118 40L188.711 40.2895L188.86 40.5H189.118V40ZM190.898 40V40.5H191.398V40H190.898ZM190.898 25.8H191.398V25.3H190.898V25.8ZM189.158 25.8V25.3H188.658V25.8H189.158ZM189.158 37.1V37.6H189.658V37.1H189.158ZM189.138 37.1L188.731 37.3894L188.88 37.6H189.138V37.1ZM181.118 25.8L181.526 25.5106L181.377 25.3H181.118V25.8ZM178.898 25.8V40H179.898V25.8H178.898ZM179.398 40.5H181.138V39.5H179.398V40.5ZM181.638 40V28.82H180.638V40H181.638ZM181.138 29.32H181.178V28.32H181.138V29.32ZM180.771 29.1095L188.711 40.2895L189.526 39.7105L181.586 28.5305L180.771 29.1095ZM189.118 40.5H190.898V39.5H189.118V40.5ZM191.398 40V25.8H190.398V40H191.398ZM190.898 25.3H189.158V26.3H190.898V25.3ZM188.658 25.8V37.1H189.658V25.8H188.658ZM189.158 36.6H189.138V37.6H189.158V36.6ZM189.546 36.8106L181.526 25.5106L180.711 26.0894L188.731 37.3894L189.546 36.8106ZM181.118 25.3H179.398V26.3H181.118V25.3ZM199.898 40.62C203.043 40.62 205.418 38.3867 205.418 35.14H204.418C204.418 37.8133 202.512 39.62 199.898 39.62V40.62ZM205.418 35.14C205.418 31.8959 203.046 29.64 199.898 29.64V30.64C202.51 30.64 204.418 32.4641 204.418 35.14H205.418ZM199.898 29.64C196.592 29.64 194.358 32.0732 194.358 35.14H195.358C195.358 32.6068 197.163 30.64 199.898 30.64V29.64ZM194.358 35.14C194.358 38.2095 196.595 40.62 199.898 40.62V39.62C197.161 39.62 195.358 37.6705 195.358 35.14H194.358ZM199.898 38.14C198.184 38.14 197.018 36.8351 197.018 35.14H196.018C196.018 37.3249 197.571 39.14 199.898 39.14V38.14ZM197.018 35.14C197.018 33.439 198.17 32.12 199.898 32.12V31.12C197.546 31.12 196.018 32.961 196.018 35.14H197.018ZM199.898 32.12C201.49 32.12 202.758 33.3245 202.758 35.14H203.758C203.758 32.7955 202.065 31.12 199.898 31.12V32.12ZM202.758 35.14C202.758 36.9497 201.476 38.14 199.898 38.14V39.14C202.04 39.14 203.758 37.4903 203.758 35.14H202.758ZM207.126 30.26V29.76H206.425L206.653 30.4231L207.126 30.26ZM210.486 40L210.013 40.1631L210.13 40.5H210.486V40ZM211.966 40V40.5H212.333L212.443 40.1497L211.966 40ZM214.206 32.86V32.36H213.839L213.729 32.7103L214.206 32.86ZM214.226 32.86L214.703 32.7103L214.593 32.36H214.226V32.86ZM216.466 40L215.989 40.1497L216.099 40.5H216.466V40ZM217.986 40V40.5H218.342L218.459 40.1631L217.986 40ZM221.346 30.26L221.819 30.4231L222.047 29.76H221.346V30.26ZM219.686 30.26V29.76H219.326L219.212 30.1019L219.686 30.26ZM217.246 37.58V38.08H217.606L217.72 37.7381L217.246 37.58ZM217.206 37.58L216.729 37.7287L216.838 38.08H217.206V37.58ZM214.926 30.26L215.403 30.1113L215.294 29.76H214.926V30.26ZM213.526 30.26V29.76H213.156L213.048 30.1137L213.526 30.26ZM211.286 37.58V38.08H211.656L211.764 37.7263L211.286 37.58ZM211.246 37.58L210.772 37.7393L210.886 38.08H211.246V37.58ZM208.786 30.26L209.26 30.1007L209.145 29.76H208.786V30.26ZM206.653 30.4231L210.013 40.1631L210.959 39.8369L207.599 30.0969L206.653 30.4231ZM210.486 40.5H211.966V39.5H210.486V40.5ZM212.443 40.1497L214.683 33.0097L213.729 32.7103L211.489 39.8503L212.443 40.1497ZM214.206 33.36H214.226V32.36H214.206V33.36ZM213.749 33.0097L215.989 40.1497L216.943 39.8503L214.703 32.7103L213.749 33.0097ZM216.466 40.5H217.986V39.5H216.466V40.5ZM218.459 40.1631L221.819 30.4231L220.873 30.0969L217.513 39.8369L218.459 40.1631ZM221.346 29.76H219.686V30.76H221.346V29.76ZM219.212 30.1019L216.772 37.4219L217.72 37.7381L220.16 30.4181L219.212 30.1019ZM217.246 37.08H217.206V38.08H217.246V37.08ZM217.683 37.4313L215.403 30.1113L214.449 30.4087L216.729 37.7287L217.683 37.4313ZM214.926 29.76H213.526V30.76H214.926V29.76ZM213.048 30.1137L210.808 37.4337L211.764 37.7263L214.004 30.4063L213.048 30.1137ZM211.286 37.08H211.246V38.08H211.286V37.08ZM211.72 37.4207L209.26 30.1007L208.312 30.4193L210.772 37.7393L211.72 37.4207ZM208.786 29.76H207.126V30.76H208.786V29.76Z" fill="white" mask="url(#path-82-outside-1_0_1)"/>
</g>
</g>
<g id="Group 80">
<g id="98k+">
<path d="M65.4333 109.267C56.9333 109.267 52.6667 113.167 52.6667 119C52.6667 125.3 57.7 127.933 63.8667 127.933C66.3 127.933 68.5333 127.633 70.0667 126.8C70.2333 131.067 67.4333 131.867 65.1 131.867C62.9667 131.867 60.9333 131.233 60.5667 129.4H53.2333C53.0667 135.733 57.8333 138.733 65.1 138.733C72.4667 138.733 78.7333 135.067 78.7333 124.133C78.7333 116.133 76 109.267 65.4333 109.267ZM65.5333 122.333C62.5667 122.333 60.9667 121.1 60.9667 119.233C60.9667 117.433 62.5667 116.067 65.5333 116.067C68.5 116.067 70 117.433 70 119.233C70 121.233 68.4667 122.333 65.5333 122.333ZM95.6828 138.733C105.916 138.733 109.149 134.433 109.149 129.867C109.149 126.633 107.516 124.233 104.349 122.6V122.067C106.016 121.033 107.183 119.033 107.183 116.867C107.183 112.533 103.549 109.267 95.6828 109.267C87.8161 109.267 84.2495 112.533 84.2495 116.867C84.2495 119.033 85.3495 121.033 87.0161 122.067V122.6C83.8495 124.233 82.2161 126.633 82.2161 129.867C82.2161 134.433 85.4495 138.733 95.6828 138.733ZM95.6828 120.333C93.3161 120.333 92.3161 119.4 92.3161 117.967C92.3161 116.4 93.5161 115.533 95.6828 115.533C97.8495 115.533 99.0495 116.4 99.0495 117.967C99.0495 119.4 98.0495 120.333 95.6828 120.333ZM95.6828 131.8C92.2828 131.8 91.1828 130.4 91.1828 128.7C91.1828 127.033 92.3161 125.6 95.6828 125.6C99.0495 125.6 100.183 127.033 100.183 128.7C100.183 130.4 99.0828 131.8 95.6828 131.8ZM141.41 138L129.11 122.433L140.777 110H133.243L120.51 123.433H120.01V110H113.41V138H120.01V131.467L124.843 126.467H125.31L134.477 138H141.41ZM165.457 121.333H158.057V113.9H152.457V121.333H145.057V126.667H152.457V134.067H158.057V126.667H165.457V121.333Z" fill="black"/>
</g>
<path id="Artwork" d="M52.6 161L57.76 147H59.54L64.68 161H62.9L61.62 157.4H55.66L54.36 161H52.6ZM56.16 156.04H61.12L58.64 149.12L56.16 156.04ZM66.6613 161V151.08H68.1813L68.3213 152.98C68.6279 152.327 69.0946 151.807 69.7213 151.42C70.3479 151.033 71.1213 150.84 72.0413 150.84V152.6H71.5813C70.9946 152.6 70.4546 152.707 69.9613 152.92C69.4679 153.12 69.0746 153.467 68.7813 153.96C68.4879 154.453 68.3413 155.133 68.3413 156V161H66.6613ZM77.8469 161C76.9402 161 76.2269 160.78 75.7069 160.34C75.1869 159.9 74.9269 159.107 74.9269 157.96V152.5H73.2069V151.08H74.9269L75.1469 148.7H76.6069V151.08H79.5269V152.5H76.6069V157.96C76.6069 158.587 76.7335 159.013 76.9869 159.24C77.2402 159.453 77.6869 159.56 78.3269 159.56H79.3669V161H77.8469ZM83.6613 161L80.7613 151.08H82.4413L84.5413 158.86L86.8613 151.08H88.7613L91.1013 158.86L93.1813 151.08H94.8813L91.9813 161H90.2613L87.8213 152.82L85.3813 161H83.6613ZM100.888 161.24C99.9549 161.24 99.1149 161.027 98.3683 160.6C97.6216 160.173 97.0283 159.573 96.5883 158.8C96.1616 158.013 95.9483 157.093 95.9483 156.04C95.9483 154.987 96.1683 154.073 96.6083 153.3C97.0483 152.513 97.6416 151.907 98.3883 151.48C99.1483 151.053 99.9949 150.84 100.928 150.84C101.862 150.84 102.702 151.053 103.448 151.48C104.195 151.907 104.782 152.513 105.208 153.3C105.648 154.073 105.868 154.987 105.868 156.04C105.868 157.093 105.648 158.013 105.208 158.8C104.768 159.573 104.168 160.173 103.408 160.6C102.662 161.027 101.822 161.24 100.888 161.24ZM100.888 159.8C101.462 159.8 101.995 159.66 102.488 159.38C102.982 159.1 103.382 158.68 103.688 158.12C103.995 157.56 104.148 156.867 104.148 156.04C104.148 155.213 103.995 154.52 103.688 153.96C103.395 153.4 103.002 152.98 102.508 152.7C102.015 152.42 101.488 152.28 100.928 152.28C100.355 152.28 99.8216 152.42 99.3283 152.7C98.8349 152.98 98.4349 153.4 98.1283 153.96C97.8216 154.52 97.6683 155.213 97.6683 156.04C97.6683 156.867 97.8216 157.56 98.1283 158.12C98.4349 158.68 98.8283 159.1 99.3083 159.38C99.8016 159.66 100.328 159.8 100.888 159.8ZM108.204 161V151.08H109.724L109.864 152.98C110.171 152.327 110.638 151.807 111.264 151.42C111.891 151.033 112.664 150.84 113.584 150.84V152.6H113.124C112.538 152.6 111.998 152.707 111.504 152.92C111.011 153.12 110.618 153.467 110.324 153.96C110.031 154.453 109.884 155.133 109.884 156V161H108.204ZM115.47 161V146.6H117.15V155.26L121.21 151.08H123.27L118.87 155.56L123.83 161H121.69L117.15 155.86V161H115.47Z" fill="#565656"/>
</g>
<g id="Group 81">
<g id="12k+">
<path d="M209.233 131V110H200C197.667 112.2 195.3 113 193 113V120.733C195.3 120.733 198 120.5 200 118.833V131H192.333V138H215.167V131H209.233ZM244.523 118.367C244.523 112.367 239.856 109.267 231.856 109.267C223.49 109.267 219.256 112.867 219.256 119.633H228.256C228.19 116.967 230.623 116.6 232.256 116.6C234.723 116.6 235.523 117.567 235.523 118.833C235.523 123.2 218.99 121.867 218.99 133.833V138H244.423V131H229.79C232.323 126.367 244.523 128 244.523 118.367ZM276.777 138L264.477 122.433L276.144 110H268.61L255.877 123.433H255.377V110H248.777V138H255.377V131.467L260.21 126.467H260.677L269.844 138H276.777ZM300.824 121.333H293.424V113.9H287.824V121.333H280.424V126.667H287.824V134.067H293.424V126.667H300.824V121.333Z" fill="black"/>
</g>
<path id="Auction" d="M191.6 161L196.76 147H198.54L203.68 161H201.9L200.62 157.4H194.66L193.36 161H191.6ZM195.16 156.04H200.12L197.64 149.12L195.16 156.04ZM209.066 161.24C207.893 161.24 206.96 160.887 206.266 160.18C205.573 159.46 205.226 158.36 205.226 156.88V151.08H206.906V156.7C206.906 158.767 207.753 159.8 209.446 159.8C210.313 159.8 211.026 159.493 211.586 158.88C212.16 158.253 212.446 157.367 212.446 156.22V151.08H214.126V161H212.606L212.486 159.22C212.18 159.847 211.72 160.34 211.106 160.7C210.506 161.06 209.826 161.24 209.066 161.24ZM221.452 161.24C220.505 161.24 219.652 161.027 218.892 160.6C218.145 160.16 217.552 159.553 217.112 158.78C216.685 157.993 216.472 157.08 216.472 156.04C216.472 155 216.685 154.093 217.112 153.32C217.552 152.533 218.145 151.927 218.892 151.5C219.652 151.06 220.505 150.84 221.452 150.84C222.625 150.84 223.612 151.147 224.412 151.76C225.225 152.373 225.738 153.193 225.952 154.22H224.232C224.098 153.607 223.772 153.133 223.252 152.8C222.732 152.453 222.125 152.28 221.432 152.28C220.872 152.28 220.345 152.42 219.852 152.7C219.358 152.98 218.958 153.4 218.652 153.96C218.345 154.52 218.192 155.213 218.192 156.04C218.192 156.867 218.345 157.56 218.652 158.12C218.958 158.68 219.358 159.107 219.852 159.4C220.345 159.68 220.872 159.82 221.432 159.82C222.125 159.82 222.732 159.653 223.252 159.32C223.772 158.973 224.098 158.487 224.232 157.86H225.952C225.752 158.86 225.245 159.673 224.432 160.3C223.618 160.927 222.625 161.24 221.452 161.24ZM231.945 161C231.038 161 230.325 160.78 229.805 160.34C229.285 159.9 229.025 159.107 229.025 157.96V152.5H227.305V151.08H229.025L229.245 148.7H230.705V151.08H233.625V152.5H230.705V157.96C230.705 158.587 230.831 159.013 231.085 159.24C231.338 159.453 231.785 159.56 232.425 159.56H233.465V161H231.945ZM236.779 148.88C236.446 148.88 236.166 148.773 235.939 148.56C235.726 148.333 235.619 148.053 235.619 147.72C235.619 147.4 235.726 147.133 235.939 146.92C236.166 146.707 236.446 146.6 236.779 146.6C237.099 146.6 237.372 146.707 237.599 146.92C237.826 147.133 237.939 147.4 237.939 147.72C237.939 148.053 237.826 148.333 237.599 148.56C237.372 148.773 237.099 148.88 236.779 148.88ZM235.939 161V151.08H237.619V161H235.939ZM245.064 161.24C244.131 161.24 243.291 161.027 242.544 160.6C241.797 160.173 241.204 159.573 240.764 158.8C240.337 158.013 240.124 157.093 240.124 156.04C240.124 154.987 240.344 154.073 240.784 153.3C241.224 152.513 241.817 151.907 242.564 151.48C243.324 151.053 244.171 150.84 245.104 150.84C246.037 150.84 246.877 151.053 247.624 151.48C248.371 151.907 248.957 152.513 249.384 153.3C249.824 154.073 250.044 154.987 250.044 156.04C250.044 157.093 249.824 158.013 249.384 158.8C248.944 159.573 248.344 160.173 247.584 160.6C246.837 161.027 245.997 161.24 245.064 161.24ZM245.064 159.8C245.637 159.8 246.171 159.66 246.664 159.38C247.157 159.1 247.557 158.68 247.864 158.12C248.171 157.56 248.324 156.867 248.324 156.04C248.324 155.213 248.171 154.52 247.864 153.96C247.571 153.4 247.177 152.98 246.684 152.7C246.191 152.42 245.664 152.28 245.104 152.28C244.531 152.28 243.997 152.42 243.504 152.7C243.011 152.98 242.611 153.4 242.304 153.96C241.997 154.52 241.844 155.213 241.844 156.04C241.844 156.867 241.997 157.56 242.304 158.12C242.611 158.68 243.004 159.1 243.484 159.38C243.977 159.66 244.504 159.8 245.064 159.8ZM252.38 161V151.08H253.9L254 152.86C254.32 152.233 254.78 151.74 255.38 151.38C255.98 151.02 256.66 150.84 257.42 150.84C258.593 150.84 259.527 151.2 260.22 151.92C260.927 152.627 261.28 153.72 261.28 155.2V161H259.6V155.38C259.6 153.313 258.747 152.28 257.04 152.28C256.187 152.28 255.473 152.593 254.9 153.22C254.34 153.833 254.06 154.713 254.06 155.86V161H252.38Z" fill="#565656"/>
</g>
</g>
</g>
<defs>
<clipPath id="clip0_0_1">
<rect width="1440" height="5728" fill="white" transform="translate(-68 -436)"/>
</clipPath>
</defs>
</svg>
